<svg width="143" height="134" viewBox="0 0 143 134" fill="none" xmlns="http://www.w3.org/2000/svg">
<g opacity="0.35" filter="url(#filter0_f_60_298)">
<path d="M71.7481 105.521C95.751 105.521 115.209 101.417 115.209 96.354C115.209 91.2912 95.751 87.187 71.7481 87.187C47.7453 87.187 28.2871 91.2912 28.2871 96.354C28.2871 101.417 47.7453 105.521 71.7481 105.521Z" fill="#D62424"/>
</g>
<path d="M70.8162 0C57.5362 0 45.6952 6.13798 37.9582 15.726L37.9602 15.71L18.7492 37.622C17.0512 39.559 18.4262 42.594 21.0022 42.594H28.6062V91.673C28.6062 96.335 32.3862 100.115 37.0482 100.115C41.7102 100.115 45.4902 96.335 45.4902 91.673V91.949C45.4902 87.287 49.2702 83.507 53.9322 83.507C58.5942 83.507 62.3742 87.287 62.3742 91.949V91.673C62.3742 96.335 66.1542 100.115 70.8162 100.115C75.4782 100.115 79.2582 96.335 79.2582 91.673V91.949C79.2582 87.287 83.0372 83.507 87.7002 83.507C92.3622 83.507 96.1422 87.287 96.1422 91.949V91.673C96.1422 96.335 99.9222 100.115 104.584 100.115C109.246 100.115 113.026 96.335 113.026 91.673V42.209C113.026 18.898 94.1282 0 70.8162 0Z" fill="white"/>
<path d="M70.8164 58.149H86.9364V53.558C86.9364 49.106 83.3274 45.498 78.8764 45.498C74.4254 45.498 70.8164 49.107 70.8164 53.558V58.149Z" fill="#D62424"/>
<path d="M97.224 45.497C91.543 45.497 86.937 40.891 86.937 35.21H107.511C107.511 40.891 102.905 45.497 97.224 45.497Z" fill="#D62424"/>
<path d="M60.5292 45.497C54.8482 45.497 50.2422 40.891 50.2422 35.21H70.8172C70.8162 40.891 66.2102 45.497 60.5292 45.497Z" fill="#D62424"/>
<path d="M62.209 82.2579C58.606 82.2579 55.686 79.3379 55.686 75.7349V64.6709C55.686 61.0689 58.606 58.1479 62.209 58.1479C65.811 58.1479 68.732 61.0679 68.732 64.6709V75.7349C68.731 79.3379 65.811 82.2579 62.209 82.2579Z" fill="#E3E3E3"/>
<path d="M95.5621 82.2579C91.9601 82.2579 89.0391 79.3379 89.0391 75.7349V64.6709C89.0391 61.0689 91.9591 58.1479 95.5621 58.1479C99.1641 58.1479 102.085 61.0679 102.085 64.6709V75.7349C102.085 79.3379 99.1641 82.2579 95.5621 82.2579Z" fill="#E3E3E3"/>
<defs>
<filter id="filter0_f_60_298" x="0.687109" y="59.587" width="142.122" height="73.534" filterUnits="userSpaceOnUse" color-interpolation-filters="sRGB">
<feFlood flood-opacity="0" result="BackgroundImageFix"/>
<feBlend mode="normal" in="SourceGraphic" in2="BackgroundImageFix" result="shape"/>
<feGaussianBlur stdDeviation="13.8" result="effect1_foregroundBlur_60_298"/>
</filter>
</defs>
</svg>
