<svg width="85" height="101" viewBox="0 0 85 101" fill="none" xmlns="http://www.w3.org/2000/svg">
<path d="M42.209 0C18.897 0 0 18.898 0 42.209V91.673C0 96.335 3.779 100.115 8.442 100.115C13.104 100.115 16.884 96.335 16.884 91.673V91.949C16.884 87.287 20.663 83.507 25.326 83.507C29.988 83.507 33.768 87.286 33.768 91.949V91.673C33.768 96.335 37.548 100.115 42.21 100.115C46.872 100.115 50.652 96.335 50.652 91.673V91.949C50.652 87.287 54.432 83.507 59.094 83.507C63.756 83.507 67.536 87.286 67.536 91.949V91.673C67.536 96.335 71.316 100.115 75.978 100.115C80.64 100.115 84.42 96.335 84.42 91.673V42.209C84.418 18.898 65.52 0 42.209 0Z" fill="white"/>
<path d="M23.8612 49.209C29.5426 49.209 34.1482 44.6034 34.1482 38.922C34.1482 33.2407 29.5426 28.635 23.8612 28.635C18.1799 28.635 13.5742 33.2407 13.5742 38.922C13.5742 44.6034 18.1799 49.209 23.8612 49.209Z" fill="#15E3D7"/>
<path d="M60.556 49.209C66.2374 49.209 70.843 44.6034 70.843 38.922C70.843 33.2407 66.2374 28.635 60.556 28.635C54.8747 28.635 50.269 33.2407 50.269 38.922C50.269 44.6034 54.8747 49.209 60.556 49.209Z" fill="#15E3D7"/>
<path d="M50.2689 65.753H34.1489V57.269C34.1489 52.818 37.7579 49.209 42.2089 49.209C46.6599 49.209 50.2689 52.818 50.2689 57.269V65.753Z" fill="#15E3D7"/>
<path d="M8.12607 77.8831C5.57907 75.3361 5.57907 71.2061 8.12607 68.6581L15.9491 60.8351C18.4961 58.2881 22.6261 58.2881 25.1741 60.8351C27.7211 63.3821 27.7211 67.5121 25.1741 70.0591L17.3511 77.8821C14.8031 80.4301 10.6731 80.4301 8.12607 77.8831Z" fill="#E3E3E3"/>
<path d="M75.2312 77.8831C77.7782 75.3361 77.7782 71.2061 75.2312 68.6581L67.4082 60.8351C64.8612 58.2881 60.7312 58.2881 58.1832 60.8351C55.6362 63.3821 55.6362 67.5121 58.1832 70.0591L66.0062 77.8821C68.5542 80.4301 72.6842 80.4301 75.2312 77.8831Z" fill="#E3E3E3"/>
<path d="M24.1439 34.1139C24.1439 35.7339 22.8299 37.0479 21.2099 37.0479C19.5899 37.0479 18.2759 35.7339 18.2759 34.1139C18.2759 32.4929 19.5899 31.1799 21.2099 31.1799C22.8299 31.1799 24.1439 32.4929 24.1439 34.1139Z" fill="white"/>
<path d="M18.276 38.886C18.276 39.589 17.706 40.159 17.003 40.159C16.3 40.159 15.73 39.589 15.73 38.886C15.73 38.183 16.3 37.613 17.003 37.613C17.706 37.614 18.276 38.183 18.276 38.886Z" fill="white"/>
<path d="M57.5448 37.0479C59.1652 37.0479 60.4788 35.7343 60.4788 34.1139C60.4788 32.4935 59.1652 31.1799 57.5448 31.1799C55.9244 31.1799 54.6108 32.4935 54.6108 34.1139C54.6108 35.7343 55.9244 37.0479 57.5448 37.0479Z" fill="white"/>
<path d="M54.6109 38.886C54.6109 39.589 54.0409 40.159 53.3379 40.159C52.6349 40.159 52.0649 39.589 52.0649 38.886C52.0649 38.183 52.6349 37.613 53.3379 37.613C54.0409 37.614 54.6109 38.183 54.6109 38.886Z" fill="white"/>
</svg>
